<?xml version="1.0" encoding="UTF-8"?>
<svg version="1.1" viewBox="0 0 1638 1529" width="1638" height="1529" xmlns="http://www.w3.org/2000/svg">
    <path transform="translate(66,256)" d="m0 0 10 1 92 26 56 15 91 21 60 13 48 9 48 8 50 7 37 4 37 3 19 1h118l21 12 11 7 19 7 15 3h58l14-3 13-5 23-12 13-9 2-1h117l58-4 52-6 54-8 72-13 45-9 75-17 64-16 56-15 62-19h9l7 4 5 5 4 6 1 3v14l-8 17-10 10-7 8-8 7-12 9-22 14-22 13-21 12-60 31-35 17-20 9-24 11-26 11-41 17-11 5-65 25-45 16-64 22-31 11-9 6-8 11-10 18-17 35-1 2h-3l-7-10-8-16-13-29-9-17-12-17-16-21-14-18-31-31-13-10-16-8-18-7-15-4-6-1h-33l-18 3-14 4-12 5-10 6-15 11-13 11-20 20-9 11-12 15-14 21-12 20-11 22-9 20-8 13-4 8-3-1-7-14-12-27-11-21-4-5-8-5-24-9-50-17-28-10-32-11-45-17-47-18-47-20-30-13-27-13-26-12-18-8-38-19-22-12-19-11-21-13-22-15-13-11-8-7-6-7-7-10-4-10-1-13 4-10 5-6z" fill="#FE0909"/>
    <path transform="translate(926,594)" d="m0 0 11 1 13 4 14 6 15 10 13 13 7 8 10 16 6 15 3 16v40l-6 28-11 36-10 26-12 31-11 25-13 28-14 30-15 29-19 38-13 21-12 20-11 18-14 21-13 20-12 19-10 14-10 15-12 17-8 12-13 18-10 14-13 16-11 14-10 12-9 12-11 13-13 17-11 13-7 8-12 14-14 15-7 8-9 9-9 11-9 9-7 8-12 13-9 9-7 8-10 10-7 8-25 25-8 7-9 9-1 2h-3l-2 5-34 34-11 9-5 3-1-6-2-31-2-90v-69l7-10 11-13 9-12 9-10 9-11 11-13 11-14 9-10 8-10 13-16 9-11 11-14 13-16 10-13 13-16 14-19 13-16 14-19 10-13 14-19 11-15 14-20 20-30 14-19 16-23 28-42 12-19 18-27 7-12 8-13 14-25 13-24 14-27 11-25 15-36 6-16 7-25 5-29 4-28z" fill="#FE0909"/>
    <path transform="translate(816,56)" d="m0 0h25l24 4 17 5 22 10 15 10 13 11 14 14 13 19 10 18 6 16 5 22 2 16v31l-4 22-7 21-8 16-8 14-14 17-9 10-16 13-13 8-29 12-21 6-9 1h-30l-15-2-25-7-24-11-20-14-13-11-7-7-9-12-12-20-9-20-5-17-3-14-1-8v-28l4-22 6-22 5-13 11-19 12-15 7-8 11-11 18-13 21-11 15-5 12-3z" fill="#00537B"/>
    <path transform="translate(922,1011)" d="m0 0 6 5 8 10 10 16 11 18 12 16 13 18 14 18 14 19 42 55 11 14 11 13 11 14 12 14 11 13 12 14 9 10 7 8 9 10 20 20 2 1v2l4 2 4 7v11l-7 74-4 51-3 61-6-3-11-13-12-14-9-11-18-20-7-8-12-13-7-8-11-12-7-8-15-16-1-3h-2l-7-8-12-13-10-11-9-11-12-13-18-20-7-8-11-11-9-11-14-15-8-10-14-15-9-10-7-8-12-14-9-10-11-13-11-14-8-11-5-8-4-11v-8l3-8 9-14 9-13 13-21 15-23 14-22 14-20z" fill="#FE0909"/>
    <path transform="translate(721,589)" d="m0 0 6 2 7 15 17 54 27 80 15 44 10 26v13l-8 19-15 29-12 21-13 23-16 32-10 14-6-1-10-13-16-30-12-28-13-35-17-53-10-35-9-40-2-13v-31l5-18 8-16 7-11 14-15 9-9 18-12 23-11z" fill="#FE0909"/>
    <path transform="translate(724,107)" d="m0 0 8 1 5 5 3 7v17l-1 10v25l4 15 6 9 2 1 2 7 3 4v2l4 1 4 5 16 6 4 4 18 10 8 5 4 2v3l4 2 2 2 3 20 3 8 11 12 5 7 2 6 1 30 1 11v11l-3 5-7 2h-26l-14-1-24-6-14-7-3-3-24-15-2-4-8-7-13-13-6-8v-2h-3l-5-12-7-15-4-11-3-18-1-18v-33l2-1 2-15 3-7 3-10 12-25 5-4 4-6 7-5 2-4h4z" fill="#005A92"/>
    <path transform="translate(807,446)" d="m0 0h30l9 2 18 8 21 13 10 9 8 7 14 14 11 14 11 13 12 16 15 23 6 10 6 14-1 3-13-4-21-9-34-12-31-8-18-3-12-1h-52l-23 3-25 6-44 15-33 15-9 7h-2l1-5 7-10 12-20 12-16 10-15 13-16 8-10 11-12 7-8 14-14 14-11 13-8 13-6z" fill="#FE0909"/>
    <path transform="translate(871,62)" d="m0 0 10 3-2 4 3 4 5 2 3 7 5 3-1 13-10-2 4 7 6 3 5 1v2l4 2 5 4 11 17 7 14 6 15 4 13 8 17 5 6 9 4 9 1 9 8v25l-5 17-8 23-4 4-6 10-7 10-8 14-9 7-3 3-5 4-6 2-1-8-2-2 8-18 11-23 2-10v-18l-14-1-13-2-5-3-3-5v-2l-25-5-21-4-6-1-7 9h-8l-9-4-4-9-10-2 1-11-1-2-4 1-6 5h-6l-5-6v-12l4-5 10-4 7-1 7 1 7 6 1-12 7-9 4-11 11-9 2-2-1-13 3-3h5l3 5 5 1 1-3v-3l-5-2-1-4v-9l3-9-2-15-4-5-9-6 2-10 7-4 1-2 15-1z" fill="#005A92"/>
    <path transform="translate(764,86)" d="m0 0 5 1v7l4 4 9 3 26 5 3 3-1 6-3 1-2 3v6l5 1 1 3 3 2 7 1-1-7v-9l5-2 6 1 16 9 6 5 10 5 1 5-3 2-5-2-2-4h-5l-2 2 1 13-11 10-3 3-4 11-6 7-2 12-4-2-3-3-9-1-11 3-5 3-2 3v12l4 5h6l7-6 4 1 1 7-2 6 10 1 4 8v2l5 1 4 2h8l7-9 6 1 42 8 4 2 4 7 4 2 21 3 2 1v9l-10 23-11 16-12 14-7 8-1 2-5 3-4 5-6 4-4 4-15 11-5-2-1-7 4-18 1-8 2-1 3-19-10-1-7-6-9-15-1-2v-13l2-5 1-7-26-13-21-9-7-2-8-5-11-20-3-2v8l-1 2h-2l-3-6-6-27v-10l6-21 2-11v-16l-9 1-7 2-1-5 8-4 5-1v-3l5-3-3-2 1-4 6-4h2v-3z" fill="#36B458"/>
    <path transform="translate(766,101)" d="m0 0 11 2 8 3 16 5 2 1-2 10 3 4 5 1v2l5 2v2h7l5 10-2 14-3 2 2 4-1 4-2 1-1-4 1-3-5 2-1 8-1 1-1 10-13 3-6 3-5 4-7 6-7 2-10-5-3-7-4-11-2-7v-13l2-36 2-10 3-6z" fill="#4FB72E"/>
    <path transform="translate(857,235)" d="m0 0h16l23 6 4 5 3 1v2l9 1 3 9v8l-2 14h-3l-1 6-4 6-11 12-10 9-11 6h-12l-4-10v-9l1-7-7-1-2-2-4-14-4-10v-14l4-9 7-6z" fill="#4FB72E"/>
    <path transform="translate(849,134)" d="m0 0h5l3 5 5 2-4 6-3 3h-2l-1 7-3 1-1 6-6 11-8 10-4 7-2 10 6 2 4 3 15 1 2 1v5l6 1v3h9l15 3 15 6 21 14 2 5 4 2v1h-8l-13-2-5-3-3-5v-2l-25-5-21-4-6-1-7 9h-8l-9-4-4-9-10-2 1-11-1-2-4 1-6 5h-6l-5-6v-12l4-5 10-4 7-1 7 1 7 6 1-12 7-9 4-11 11-9 2-2-1-13z" fill="#00537C"/>
    <path transform="translate(933,121)" d="m0 0 6 2 6 7 9 16 11 27 2 8v16l-3 4h-9l-8-14-10-30-4-23-1-3v-7z" fill="#36B458"/>
    <path transform="translate(828,83)" d="m0 0h11l15 6 5 6 2 16-7-1-15-9-16-8-5-1 2 6 14 7 2 2-1 6h-8l-3-3-3-1-3-3-9-1h-4v-2l-16-4 3-4 15-5 8-3z" fill="#36B458"/>
    <path transform="translate(818,92)" d="m0 0 7 1 16 8 13 8 7 2-3 8v12l-5-1-11-8-14-7-7 1v16h-7l-4-3v-3l-5-1-1-6 3-4h3v-6l-4-4 8-1 7 3v2l4 1 4 2 6 1v-6l-10-6-6-3z" fill="#00537C"/>
    <path transform="translate(750,112)" d="m0 0 4 1 1 18-5 21-3 9v10l5 21v6l-5-3-6-10-3-13v-25l1-10v-17l-1-4 7-3z" fill="#00537C"/>
    <path transform="translate(898,93)" d="m0 0 6 1 3 3 4 2v2l6 2 6 7 5 11 2 6v6h-7l-4-7-5-10-13-16-2-1z" fill="#36B458"/>
    <path transform="translate(809,146)" d="m0 0h8l2 4-1 5-3 3-5 1z" fill="#36B458"/>
    <path transform="translate(884,96)" d="m0 0 7 1 7 3v6l-4 1-7-4-3-5z" fill="#36B458"/>
    <path transform="translate(809,146)" d="m0 0 4 1 3 4-2 4-4 1z" fill="#00537C"/>
    <path transform="translate(980,594)" d="m0 0h2l-1 3z" fill="#FE0909"/>
</svg>
